<?xml version="1.0" ?><svg id="Layer_1" style="enable-background:new 0 0 32 32;" version="1.1" viewBox="0 0 32 32" xml:space="preserve" xmlns="http://www.w3.org/2000/svg" xmlns:xlink="http://www.w3.org/1999/xlink"><style type="text/css">
	.st0{fill:none;stroke:#000000;stroke-width:1.5;stroke-linecap:round;stroke-linejoin:round;stroke-miterlimit:10;}
</style><g><path class="st0" d="M31,5.8v7.9c0,1.1-0.9,2.1-2.1,2.1H15.6l-3.2,2.5V5.8c0-1.1,0.9-2.1,2.1-2.1h14.4C30.1,3.8,31,4.7,31,5.8z"/><line class="st0" x1="26.1" x2="17.3" y1="7.7" y2="7.7"/><line class="st0" x1="27.6" x2="15.8" y1="11.7" y2="11.7"/><path class="st0" d="M12.5,18.3l3.2-2.5h4.2v13.5c0,0.9-0.7,1.6-1.6,1.6H2.6c-0.9,0-1.6-0.7-1.6-1.6V2.7c0-0.9,0.7-1.6,1.6-1.6   h15.6c0.9,0,1.6,0.7,1.6,1.6v1.1h-5.3c-1.1,0-2.1,0.9-2.1,2.1L12.5,18.3L12.5,18.3z"/><path class="st0" d="M18.2,30.9H2.6c-0.9,0-1.6-0.7-1.6-1.6v-3.2h18.9v3.2C19.9,30.2,19.1,30.9,18.2,30.9z"/><path class="st0" d="M19.9,2.7v1.1h-5.3c-1.1,0-2.1,0.9-2.1,2.1V6H1V2.7c0-0.9,0.7-1.6,1.6-1.6h15.6C19.1,1.1,19.9,1.8,19.9,2.7z"/><line class="st0" x1="8.5" x2="12.4" y1="28.5" y2="28.5"/></g></svg>